HIERARCHY
ROOT Hips
{
	OFFSET 0.00000 0.00000 0.00000
	CHANNELS 6 Xposition Yposition Zposition Zrotation Yrotation Xrotation 
	JOINT LHipJoint
	{
		OFFSET 0 0 0
		CHANNELS 3 Zrotation Yrotation Xrotation
		JOINT LeftHip
		{
			OFFSET 1.53139 -1.83434 0.76626
			CHANNELS 3 Zrotation Yrotation Xrotation
			JOINT LeftKnee
			{
				OFFSET 2.56112 -7.03663 0.00000
				CHANNELS 3 Zrotation Yrotation Xrotation
				JOINT LeftAnkle
				{
					OFFSET 2.59983 -7.14299 0.00000
					CHANNELS 3 Zrotation Yrotation Xrotation
					JOINT LeftToe
					{
						OFFSET 0.13742 -0.37757 2.00054
						CHANNELS 3 Zrotation Yrotation Xrotation
						End Site
						{
							OFFSET 0.00000 -0.00000 1.02897
						}
					}
				}
			}
		}
	}
	JOINT RHipJoint
	{
		OFFSET 0 0 0
		CHANNELS 3 Zrotation Yrotation Xrotation
		JOINT RightHip
		{
			OFFSET -1.40122 -1.83435 0.76627
			CHANNELS 3 Zrotation Yrotation Xrotation
			JOINT RightKnee
			{
				OFFSET -2.54052 -6.98003 0.00000
				CHANNELS 3 Zrotation Yrotation Xrotation
				JOINT RightAnkle
				{
					OFFSET -2.63179 -7.23079 0.00000
					CHANNELS 3 Zrotation Yrotation Xrotation
					JOINT RightToe
					{
						OFFSET -0.24131 -0.66299 2.03908
						CHANNELS 3 Zrotation Yrotation Xrotation
						End Site
						{
							OFFSET -0.00000 -0.00000 1.07391
						}
					}
				}
			}
		}
	}
	JOINT lowerback
	{
		OFFSET 0 0 0
		CHANNELS 3 Zrotation Yrotation Xrotation
		JOINT Chest
		{
			OFFSET 0.01174 2.10302 -0.29778
			CHANNELS 3 Zrotation Yrotation Xrotation
			JOINT Chest2
			{
				OFFSET 0.00772 2.13227 -0.01247
				CHANNELS 3 Zrotation Yrotation Xrotation
				JOINT lowerneck
				{
					OFFSET 0 0 0
					CHANNELS 3 Zrotation Yrotation Xrotation
					JOINT Neck
					{
						OFFSET -0.09219 1.60848 0.31481
						CHANNELS 3 Zrotation Yrotation Xrotation
						JOINT Head
						{
							OFFSET 0.13974 1.65456 -0.31134
							CHANNELS 3 Zrotation Yrotation Xrotation
							End Site
							{
								OFFSET 0.04742 1.69515 -0.14578
							}
						}
					}
				}
				JOINT LeftCollar
				{
					OFFSET 0 0 0
					CHANNELS 3 Zrotation Yrotation Xrotation
					JOINT LeftShoulder
					{
						OFFSET 3.24909 1.02882 -0.23993
CHANNELS 3 Zrotation Xrotation Yrotation
						JOINT LeftElbow
						{
OFFSET 0 -5.329550 -0.000000
CHANNELS 3 Zrotation Xrotation Yrotation
							JOINT LeftWrist
							{
OFFSET 0 -3.692320 -0.000000
CHANNELS 3 Zrotation Xrotation Yrotation
								JOINT lhand
								{
									OFFSET 0 0 0
CHANNELS 3 Zrotation Xrotation Yrotation
									JOINT LFingers
									{
OFFSET 0 -0.536600 -0.000000
CHANNELS 3 Zrotation Xrotation Yrotation
										End Site
										{
OFFSET 0 -0.432620 -0.000000
										}
									}
								}
								JOINT LThumb
								{
OFFSET 0 0.000000 0.000000
CHANNELS 3 Zrotation Xrotation Yrotation
									End Site
									{
OFFSET 0 -0.439220 0.439220
									}
								}
							}
						}
					}
				}
				JOINT RightCollar
				{
					OFFSET 0 0 0
					CHANNELS 3 Zrotation Yrotation Xrotation
					JOINT RightShoulder
					{
						OFFSET -3.21387 0.93002 -0.34594
CHANNELS 3 Zrotation Xrotation Yrotation
						JOINT RightElbow
						{
OFFSET 0 -5.234310 0.000000
CHANNELS 3 Zrotation Xrotation Yrotation
							JOINT RightWrist
							{
OFFSET 0 -3.553010 -0.000000
CHANNELS 3 Zrotation Xrotation Yrotation
								JOINT rhand
								{
									OFFSET 0 0 0
CHANNELS 3 Zrotation Xrotation Yrotation
									JOINT RFingers
									{
OFFSET 0 -0.772520 -0.000000
CHANNELS 3 Zrotation Xrotation Yrotation
										End Site
										{
OFFSET 0 -0.622830 -0.000000
										}
									}
								}
								JOINT RThumb
								{
OFFSET 0 0.000000 0.000000
CHANNELS 3 Zrotation Xrotation Yrotation
									End Site
									{
OFFSET 0 -0.632340 0.632340
									}
								}
							}
						}
					}
				}
			}
		}
	}
}
MOTION
Frames: 4
Frame Time: 0.008333333333333333
9.498500 17.827600 -25.306100 177.582000 -1.607300 -179.885000 0.000000 0.000000 0.000000 -24.643800 0.351700 -5.824700 0.929100 6.140400 17.192400 -0.264800 -13.864900 -6.126600 0.053600 -1.494500 -4.110600 0.000000 0.000000 0.000000 16.752400 3.834600 -12.920200 -3.567200 -11.561000 34.196100 -0.949900 -1.031500 -18.815100 -0.006100 0.502700 -1.381200 -4.082900 0.110500 9.598100 0.364300 -0.357200 0.858700 2.730100 -0.133400 -4.466200 -11.094700 -3.835300 -24.201500 8.823600 -4.383000 25.228400 4.468900 -2.017100 12.905800 -0.000000 -0.000000 0.000000 0.209100 -3.014100 -33.387400 14.923900 -24.039900 3.194900 19.592400 14.884100 -24.403800 0.000000 0.000000 0.000000 -7.125000 0.000000 0.000000 -10.579200 55.381700 2.718300 -0.000000 -0.000000 0.000000 -1.128100 -1.971000 17.756100 -14.350700 -23.233900 -2.965100 -14.359000 9.176700 -8.289300 0.000000 0.000000 0.000000 7.125000 0.000000 -0.000000 9.037200 21.468100 5.166000
9.501961 17.825918 -25.292401 177.609888 -1.888083 -179.946342 0.000000 0.000000 0.000000 -24.598501 0.334480 -5.812852 0.929301 6.141160 17.194562 -0.290524 -14.070511 -5.939342 0.060968 -1.589528 -4.372649 0.000000 0.000000 0.000000 16.793521 3.736759 -12.937213 -3.585055 -11.586662 34.285056 -0.904510 -1.559797 -18.594036 -0.000026 -0.005732 0.015620 -4.063413 0.094419 9.662513 0.347859 -0.379230 0.811707 2.705715 -0.141367 -4.549913 -11.208595 -3.882911 -24.157396 8.742208 -4.469008 25.727378 4.453817 -2.103346 13.111070 0.000000 0.000000 0.000000 0.374652 -2.606143 -33.355682 15.100622 -24.286176 3.267202 19.313989 14.892687 -25.122901 0.000000 0.000000 0.000000 -7.125000 0.000000 0.000000 -11.201425 56.050220 3.063685 0.000000 0.000000 0.000000 -1.009508 -1.840673 17.486263 -14.290129 -23.147933 -2.941186 -14.505805 9.214027 -8.325470 0.000000 0.000000 0.000000 7.125000 0.000000 0.000000 8.930109 21.424821 5.112173
9.503222 17.821544 -25.278011 177.346422 -2.189542 -180.034150 0.000000 0.000000 0.000000 -24.888660 0.312707 -5.682746 0.915952 6.097914 17.068885 -0.327234 -14.215717 -5.510053 0.027230 -1.048338 -2.882081 0.000000 0.000000 0.000000 16.492449 3.507609 -12.986193 -3.611898 -11.625288 34.418810 -0.886107 -1.818496 -18.527136 -0.000609 -0.161646 0.444004 -4.301365 0.074705 9.719306 0.245936 -0.442169 0.844361 2.742250 -0.171236 -4.542026 -11.009313 -3.739601 -24.123462 8.476251 -4.316797 26.084518 4.350551 -2.070737 13.218152 0.000000 0.000000 0.000000 0.562005 -2.635754 -33.269000 15.025566 -24.181729 3.236454 18.889952 14.894129 -25.367205 0.000000 0.000000 0.000000 -7.125000 0.000000 0.000000 -11.761060 56.208195 3.264511 0.000000 0.000000 0.000000 -0.954858 -1.801873 17.431222 -14.303934 -23.167488 -2.946606 -14.409001 9.107759 -8.257011 0.000000 0.000000 0.000000 7.125000 0.000000 0.000000 9.002377 21.498687 5.139348
9.502673 17.817800 -25.264042 177.142927 -2.478724 -180.197454 0.000000 0.000000 0.000000 -25.121090 0.279603 -5.519384 0.915351 6.095899 17.063011 -0.363442 -14.309021 -5.015977 0.003827 -0.372181 -1.022552 0.000000 0.000000 0.000000 16.257642 3.242286 -12.905935 -3.627251 -11.647125 34.494742 -0.901821 -1.754789 -18.654410 -0.000648 -0.164126 0.450865 -4.443523 0.069907 9.711299 0.153085 -0.473683 0.972943 2.728944 -0.194126 -4.400580 -11.240039 -3.736539 -23.805544 8.603607 -4.332711 26.165531 4.438746 -2.101646 13.197934 0.000000 0.000000 0.000000 0.676344 -2.873495 -32.888948 14.847186 -23.932805 3.163667 18.427599 14.992300 -25.012444 0.000000 0.000000 0.000000 -7.125000 0.000000 0.000000 -12.068281 55.758660 3.220025 0.000000 0.000000 0.000000 -0.858763 -1.890993 17.179492 -14.280816 -23.134716 -2.937486 -14.107913 9.232444 -8.192830 0.000000 0.000000 0.000000 7.125000 0.000000 0.000000 9.221901 21.576811 5.251231
